<svg width="398" height="188" viewBox="0 0 398 188" fill="none" xmlns="http://www.w3.org/2000/svg">
<rect x="201" y="55" width="69" height="3" rx="1.5" fill="#1562AF" fill-opacity="0.14"/>
<rect x="88" y="55" width="106" height="3" rx="1.5" fill="#1562AF" fill-opacity="0.14"/>
<rect x="-11" y="55" width="92" height="3" rx="1.5" fill="#1562AF" fill-opacity="0.14"/>
<rect x="276" y="55" width="77" height="3" rx="1.5" fill="#1562AF" fill-opacity="0.34"/>
<rect x="317" y="66" width="36" height="3" rx="1.5" fill="#1562AF" fill-opacity="0.14"/>
<rect x="173" y="66" width="137" height="3" rx="1.5" fill="#1562AF" fill-opacity="0.14"/>
<rect x="61" y="66" width="105" height="3" rx="1.5" fill="#1562AF" fill-opacity="0.34"/>
<rect x="-11" y="66" width="65" height="3" rx="1.5" fill="#1562AF" fill-opacity="0.14"/>
<rect x="-11" width="144" height="3" rx="1.5" fill="#1562AF" fill-opacity="0.14"/>
<rect x="140" width="136" height="3" rx="1.5" fill="#1562AF" fill-opacity="0.34"/>
<rect width="46" height="3" rx="1.5" transform="matrix(-1 0 0 1 329 0)" fill="#1562AF" fill-opacity="0.14"/>
<rect x="111" y="11" width="111" height="3" rx="1.5" fill="#1562AF" fill-opacity="0.14"/>
<rect x="111" y="152" width="111" height="3" rx="1.5" fill="#1562AF" fill-opacity="0.14"/>
<rect x="-11" y="11" width="115" height="3" rx="1.5" fill="#1562AF" fill-opacity="0.34"/>
<rect x="-11" y="152" width="115" height="3" rx="1.5" fill="#1562AF" fill-opacity="0.34"/>
<rect x="264" y="11" width="28" height="3" rx="1.5" fill="#1562AF" fill-opacity="0.34"/>
<rect x="229" y="11" width="28" height="3" rx="1.5" fill="#1562AF" fill-opacity="0.14"/>
<rect x="229" y="152" width="37" height="3" rx="1.5" fill="#1562AF" fill-opacity="0.14"/>
<rect x="299" y="11" width="83" height="3" rx="1.5" fill="#1562AF" fill-opacity="0.14"/>
<rect x="273" y="22" width="89" height="3" rx="1.5" fill="#1562AF" fill-opacity="0.14"/>
<rect x="273" y="163" width="19" height="3" rx="1.5" fill="#1562AF" fill-opacity="0.14"/>
<rect x="123" y="22" width="143" height="3" rx="1.5" fill="#1562AF" fill-opacity="0.34"/>
<rect x="123" y="163" width="143" height="3" rx="1.5" fill="#1562AF" fill-opacity="0.34"/>
<rect x="84" y="22" width="32" height="3" rx="1.5" fill="#1562AF" fill-opacity="0.14"/>
<rect x="84" y="163" width="32" height="3" rx="1.5" fill="#1562AF" fill-opacity="0.14"/>
<rect x="-11" y="22" width="88" height="3" rx="1.5" fill="#1562AF" fill-opacity="0.14"/>
<rect x="-11" y="163" width="88" height="3" rx="1.5" fill="#1562AF" fill-opacity="0.14"/>
<rect x="338" y="33" width="60" height="3" rx="1.5" fill="#1562AF" fill-opacity="0.34"/>
<rect x="190" y="33" width="142" height="3" rx="1.5" fill="#1562AF" fill-opacity="0.14"/>
<rect x="190" y="174" width="51" height="3" rx="1.5" fill="#1562AF" fill-opacity="0.14"/>
<rect x="248" y="174" width="62" height="3" rx="1.5" fill="#1562AF" fill-opacity="0.34"/>
<rect x="152" y="33" width="31" height="3" rx="1.5" fill="#1562AF" fill-opacity="0.14"/>
<rect x="95" y="33" width="51" height="3" rx="1.5" fill="#1562AF" fill-opacity="0.14"/>
<rect x="95" y="174" width="88" height="3" rx="1.5" fill="#1562AF" fill-opacity="0.14"/>
<rect x="21" y="33" width="67" height="3" rx="1.5" fill="#1562AF" fill-opacity="0.34"/>
<rect x="-11" y="174" width="99" height="3" rx="1.5" fill="#1562AF" fill-opacity="0.34"/>
<rect x="-11" y="33" width="25" height="3" rx="1.5" fill="#1562AF" fill-opacity="0.14"/>
<rect x="-11" y="44" width="72" height="3" rx="1.5" fill="#1562AF" fill-opacity="0.34"/>
<rect x="-11" y="185" width="72" height="3" rx="1.5" fill="#1562AF" fill-opacity="0.14"/>
<rect x="68" y="44" width="97" height="3" rx="1.5" fill="#1562AF" fill-opacity="0.14"/>
<rect x="68" y="185" width="55" height="3" rx="1.5" fill="#1562AF" fill-opacity="0.34"/>
</svg>
